<svg width="26" height="20" viewBox="0 0 26 20" fill="none" xmlns="http://www.w3.org/2000/svg">
<path d="M16.4213 14.1925H9.43079V1.69873H16.4213V14.1925Z" fill="#6C6BBD"/>
<path d="M9.87463 7.94582C9.87463 5.4114 11.0678 3.15381 12.9259 1.69892C11.5671 0.635042 9.85228 4.62421e-05 7.9886 4.62421e-05C3.57651 4.62421e-05 0 3.55744 0 7.94582C0 12.3342 3.57651 15.8916 7.9886 15.8916C9.85228 15.8916 11.5671 15.2566 12.9259 14.1927C11.0678 12.7378 9.87463 10.4802 9.87463 7.94582" fill="#EB001B"/>
<path d="M25.8522 7.94582C25.8522 12.3342 22.2757 15.8916 17.8636 15.8916C15.9999 15.8916 14.2851 15.2566 12.9258 14.1927C14.7844 12.7378 15.9776 10.4802 15.9776 7.94582C15.9776 5.4114 14.7844 3.15381 12.9258 1.69892C14.2851 0.635042 15.9999 4.62421e-05 17.8636 4.62421e-05C22.2757 4.62421e-05 25.8522 3.55744 25.8522 7.94582" fill="#0099DF"/>
<path d="M18.7864 17.7229C18.8794 17.7229 19.013 17.7406 19.1151 17.7805L18.9729 18.2129C18.8753 18.173 18.7778 18.1598 18.6843 18.1598C18.3826 18.1598 18.2317 18.3538 18.2317 18.7024V19.8855H17.77V17.7759H18.2272V18.032C18.3471 17.8466 18.5203 17.7229 18.7864 17.7229V17.7229Z" fill="#231F20"/>
<path d="M17.0808 18.1951H16.3265V19.1484C16.3265 19.3601 16.4016 19.5015 16.6328 19.5015C16.7526 19.5015 16.9035 19.4616 17.0407 19.3823L17.1737 19.7748C17.0274 19.8763 16.7968 19.9385 16.5972 19.9385C16.0512 19.9385 15.8607 19.647 15.8607 19.157V18.1951H15.4299V17.7759H15.8607V17.1358H16.3265V17.7759H17.0808V18.1951Z" fill="#231F20"/>
<path fill-rule="evenodd" clip-rule="evenodd" d="M11.7463 17.7229C12.3412 17.7229 12.7496 18.173 12.7541 18.8307C12.7541 18.8919 12.7496 18.9485 12.7451 19.0056L12.745 19.007H11.1698C11.2364 19.3864 11.5071 19.5233 11.8043 19.5233C12.0171 19.5233 12.2436 19.444 12.4209 19.3026L12.6475 19.6425C12.3899 19.8588 12.0973 19.9381 11.7778 19.9381C11.1429 19.9381 10.6903 19.5011 10.6903 18.8307C10.6903 18.173 11.1251 17.7229 11.7463 17.7229ZM11.7377 18.1331C11.409 18.1331 11.2231 18.3407 11.1739 18.6453H12.2746C12.2258 18.3185 12.0348 18.1331 11.7377 18.1331Z" fill="#231F20"/>
<path d="M14.7818 18.3144C14.6532 18.2345 14.3916 18.133 14.1209 18.133C13.8679 18.133 13.7171 18.226 13.7171 18.3805C13.7171 18.5215 13.8766 18.5614 14.0762 18.5877L14.2936 18.6185C14.7553 18.6852 15.0347 18.8791 15.0347 19.2499C15.0347 19.6515 14.6797 19.9385 14.0676 19.9385C13.7211 19.9385 13.4016 19.8501 13.1487 19.6647L13.3661 19.307C13.5215 19.4262 13.7526 19.5278 14.0721 19.5278C14.3871 19.5278 14.5557 19.4353 14.5557 19.2717C14.5557 19.1529 14.4358 19.0863 14.1829 19.0514L13.9655 19.0206C13.4905 18.9539 13.233 18.7422 13.233 18.3982C13.233 17.9789 13.5794 17.7228 14.1163 17.7228C14.4536 17.7228 14.7599 17.7981 14.9814 17.9436L14.7818 18.3144V18.3144Z" fill="#231F20"/>
<path fill-rule="evenodd" clip-rule="evenodd" d="M20.9305 17.8083C20.7903 17.7512 20.6379 17.7229 20.4733 17.7229C20.3087 17.7229 20.1564 17.7512 20.0162 17.8083C19.876 17.8649 19.7556 17.9432 19.654 18.0427C19.5524 18.1422 19.4726 18.2599 19.4147 18.3953C19.3568 18.5312 19.3279 18.6787 19.3279 18.8378C19.3279 18.9969 19.3568 19.1444 19.4147 19.2803C19.4726 19.4157 19.5524 19.5339 19.654 19.6334C19.7556 19.733 19.876 19.8108 20.0162 19.8678C20.1564 19.9244 20.3087 19.9527 20.4733 19.9527C20.6379 19.9527 20.7903 19.9244 20.9305 19.8678C21.0707 19.8108 21.1921 19.733 21.2942 19.6334C21.3968 19.5339 21.4765 19.4157 21.5344 19.2803C21.5923 19.1444 21.6213 18.9969 21.6213 18.8378C21.6213 18.6787 21.5923 18.5312 21.5344 18.3953C21.4765 18.2599 21.3968 18.1422 21.2942 18.0427C21.1921 17.9432 21.0707 17.8649 20.9305 17.8083ZM20.2086 18.2083C20.2904 18.1755 20.3783 18.1588 20.4733 18.1588C20.5683 18.1588 20.6566 18.1755 20.7379 18.2083C20.8197 18.2417 20.8908 18.2882 20.9502 18.3478C21.0107 18.4074 21.0574 18.4791 21.092 18.5625C21.126 18.6458 21.1428 18.7378 21.1428 18.8378C21.1428 18.9383 21.126 19.0298 21.092 19.1131C21.0574 19.1965 21.0107 19.2682 20.9502 19.3278C20.8908 19.3874 20.8197 19.4339 20.7379 19.4672C20.6566 19.5006 20.5683 19.5167 20.4733 19.5167C20.3783 19.5167 20.2904 19.5006 20.2086 19.4672C20.1274 19.4339 20.0568 19.3874 19.9973 19.3278C19.9379 19.2682 19.8912 19.1965 19.8571 19.1131C19.8231 19.0298 19.8063 18.9383 19.8063 18.8378C19.8063 18.7378 19.8231 18.6458 19.8571 18.5625C19.8912 18.4791 19.9379 18.4074 19.9973 18.3478C20.0568 18.2882 20.1274 18.2417 20.2086 18.2083Z" fill="#231F20"/>
<path fill-rule="evenodd" clip-rule="evenodd" d="M10.195 17.7759V18.8307V19.8855H9.73377V19.6294C9.58698 19.8193 9.36551 19.9386 9.06378 19.9386C8.46897 19.9386 8.00317 19.4748 8.00317 18.8307C8.00317 18.1861 8.46897 17.7229 9.06378 17.7229C9.36551 17.7229 9.58698 17.8421 9.73377 18.0321V17.7759H10.195ZM9.12116 18.1553C8.72191 18.1553 8.47758 18.4599 8.47758 18.8307C8.47758 19.2015 8.72191 19.5056 9.12116 19.5056C9.50263 19.5056 9.76016 19.2146 9.76016 18.8307C9.76016 18.4468 9.50263 18.1553 9.12116 18.1553Z" fill="#231F20"/>
<path d="M7.59487 19.8855V18.5615C7.59487 18.0629 7.27537 17.7274 6.76081 17.7229C6.49007 17.7183 6.21019 17.8022 6.01514 18.0982C5.86885 17.8643 5.63773 17.7229 5.31365 17.7229C5.08761 17.7229 4.86564 17.7891 4.69242 18.0361V17.7759H4.2312V19.8855H4.697V18.716C4.697 18.3498 4.90119 18.1553 5.21612 18.1553C5.52242 18.1553 5.67785 18.3538 5.67785 18.7115V19.8855H6.14365V18.716C6.14365 18.3498 6.35699 18.1553 6.66278 18.1553C6.97822 18.1553 7.12908 18.3538 7.12908 18.7115V19.8855H7.59487V19.8855Z" fill="#231F20"/>
</svg>
